<mxfile host="app.diagrams.net" agent="Mozilla/5.0 (Windows NT 10.0; Win64; x64) AppleWebKit/537.36 (KHTML, like Gecko) Chrome/109.0.0.0 Safari/537.36" version="24.9.1">
  <diagram name="PÃ¡gina-1" id="dnJM9QXRennuNBEN_8y1">
    <mxGraphModel dx="367" dy="744" grid="1" gridSize="10" guides="1" tooltips="1" connect="1" arrows="1" fold="1" page="1" pageScale="1" pageWidth="827" pageHeight="1169" math="0" shadow="0">
      <root>
        <mxCell id="0" />
        <mxCell id="1" parent="0" />
        <mxCell id="475ydAV7qHKK5AaW2Ggx-7" style="edgeStyle=orthogonalEdgeStyle;rounded=0;orthogonalLoop=1;jettySize=auto;html=1;exitX=0.5;exitY=0;exitDx=0;exitDy=0;entryX=0.539;entryY=1.013;entryDx=0;entryDy=0;entryPerimeter=0;" edge="1" parent="1" source="475ydAV7qHKK5AaW2Ggx-1" target="475ydAV7qHKK5AaW2Ggx-6">
          <mxGeometry relative="1" as="geometry">
            <mxPoint x="1360" y="520" as="targetPoint" />
          </mxGeometry>
        </mxCell>
        <mxCell id="475ydAV7qHKK5AaW2Ggx-1" value="&lt;b&gt;Livro&lt;/b&gt;" style="swimlane;fontStyle=0;childLayout=stackLayout;horizontal=1;startSize=30;horizontalStack=0;resizeParent=1;resizeParentMax=0;resizeLast=0;collapsible=1;marginBottom=0;whiteSpace=wrap;html=1;fillColor=default;" vertex="1" parent="1">
          <mxGeometry x="970" y="585" width="460" height="310" as="geometry" />
        </mxCell>
        <mxCell id="475ydAV7qHKK5AaW2Ggx-2" value="&lt;div&gt;- titulo: String&lt;/div&gt;&lt;div&gt;- autor: String&lt;/div&gt;&lt;div&gt;- ISBN: String&lt;/div&gt;&lt;div&gt;- emprestado: &lt;span class=&quot;hljs-keyword&quot;&gt;boolean&lt;/span&gt;&amp;nbsp;&lt;/div&gt;&lt;div&gt;&lt;span style=&quot;background-color: initial;&quot;&gt;- genero: String&amp;nbsp;&amp;nbsp;&lt;/span&gt;&lt;/div&gt;" style="text;strokeColor=default;fillColor=none;align=left;verticalAlign=middle;spacingLeft=4;spacingRight=4;overflow=hidden;points=[[0,0.5],[1,0.5]];portConstraint=eastwest;rotatable=0;whiteSpace=wrap;html=1;labelBorderColor=none;" vertex="1" parent="475ydAV7qHKK5AaW2Ggx-1">
          <mxGeometry y="30" width="460" height="90" as="geometry" />
        </mxCell>
        <mxCell id="475ydAV7qHKK5AaW2Ggx-3" value="&lt;div&gt;+ &lt;span class=&quot;hljs-title function_ invoke__&quot;&gt;Livro&lt;/span&gt;()&amp;nbsp;&lt;/div&gt;&lt;div&gt;+ &lt;span class=&quot;hljs-title function_ invoke__&quot;&gt;Livro&lt;/span&gt;(&lt;span class=&quot;hljs-attr&quot;&gt;titulo&lt;/span&gt;: String, &lt;span class=&quot;hljs-attr&quot;&gt;autor&lt;/span&gt;: String, &lt;span class=&quot;hljs-attr&quot;&gt;ISBN&lt;/span&gt;: String, &lt;span class=&quot;hljs-attr&quot;&gt;genero&lt;/span&gt;: String)&lt;/div&gt;&lt;div&gt;+ &lt;span class=&quot;hljs-title function_ invoke__&quot;&gt;setTitulo&lt;/span&gt;(&lt;span class=&quot;hljs-attr&quot;&gt;titulo&lt;/span&gt;: String): &lt;span class=&quot;hljs-keyword&quot;&gt;void&lt;/span&gt;&amp;nbsp;&lt;/div&gt;&lt;div&gt;+ &lt;span class=&quot;hljs-title function_ invoke__&quot;&gt;setAutor&lt;/span&gt;(&lt;span class=&quot;hljs-attr&quot;&gt;autor&lt;/span&gt;: String): &lt;span class=&quot;hljs-keyword&quot;&gt;void&lt;/span&gt;&amp;nbsp;&lt;/div&gt;&lt;div&gt;+ &lt;span class=&quot;hljs-title function_ invoke__&quot;&gt;setISBN&lt;/span&gt;(&lt;span class=&quot;hljs-attr&quot;&gt;ISBN&lt;/span&gt;: String): &lt;span class=&quot;hljs-keyword&quot;&gt;void&lt;/span&gt;&amp;nbsp;&lt;/div&gt;&lt;div&gt;+ &lt;span class=&quot;hljs-title function_ invoke__&quot;&gt;setEmprestado&lt;/span&gt;(&lt;span class=&quot;hljs-attr&quot;&gt;emprestado&lt;/span&gt;: &lt;span class=&quot;hljs-keyword&quot;&gt;boolean&lt;/span&gt;): &lt;span class=&quot;hljs-keyword&quot;&gt;void&lt;/span&gt;&lt;/div&gt;&lt;div&gt;+ &lt;span class=&quot;hljs-title function_ invoke__&quot;&gt;setGenero&lt;/span&gt;(&lt;span class=&quot;hljs-attr&quot;&gt;genero&lt;/span&gt;: String): &lt;span class=&quot;hljs-keyword&quot;&gt;void&lt;/span&gt;&amp;nbsp;&lt;/div&gt;&lt;div&gt;+ &lt;span class=&quot;hljs-title function_ invoke__&quot;&gt;getTitulo&lt;/span&gt;(): String&amp;nbsp;&lt;/div&gt;&lt;div&gt;+ &lt;span class=&quot;hljs-title function_ invoke__&quot;&gt;getAutor&lt;/span&gt;(): String&amp;nbsp;&lt;br&gt;+ &lt;span class=&quot;hljs-title function_ invoke__&quot;&gt;getISBN&lt;/span&gt;(): String&amp;nbsp;&lt;br&gt;+ &lt;span class=&quot;hljs-title function_ invoke__&quot;&gt;getEmprestado&lt;/span&gt;(): &lt;span class=&quot;hljs-keyword&quot;&gt;boolean&lt;/span&gt;&amp;nbsp;&lt;br&gt;+ &lt;span class=&quot;hljs-title function_ invoke__&quot;&gt;getGenero&lt;/span&gt;(): String&lt;br&gt;&lt;/div&gt;" style="text;strokeColor=none;fillColor=none;align=left;verticalAlign=middle;spacingLeft=4;spacingRight=4;overflow=hidden;points=[[0,0.5],[1,0.5]];portConstraint=eastwest;rotatable=0;whiteSpace=wrap;html=1;" vertex="1" parent="475ydAV7qHKK5AaW2Ggx-1">
          <mxGeometry y="120" width="460" height="190" as="geometry" />
        </mxCell>
        <mxCell id="475ydAV7qHKK5AaW2Ggx-4" value="&lt;b&gt;LivroDidatico&lt;/b&gt;" style="swimlane;fontStyle=0;childLayout=stackLayout;horizontal=1;startSize=30;horizontalStack=0;resizeParent=1;resizeParentMax=0;resizeLast=0;collapsible=1;marginBottom=0;whiteSpace=wrap;html=1;fillColor=default;" vertex="1" parent="1">
          <mxGeometry x="1110" y="370" width="460" height="140" as="geometry" />
        </mxCell>
        <mxCell id="475ydAV7qHKK5AaW2Ggx-5" value="- disciplina: &lt;span class=&quot;hljs-type&quot;&gt;String&lt;/span&gt;" style="text;strokeColor=default;fillColor=none;align=left;verticalAlign=middle;spacingLeft=4;spacingRight=4;overflow=hidden;points=[[0,0.5],[1,0.5]];portConstraint=eastwest;rotatable=0;whiteSpace=wrap;html=1;labelBorderColor=none;" vertex="1" parent="475ydAV7qHKK5AaW2Ggx-4">
          <mxGeometry y="30" width="460" height="30" as="geometry" />
        </mxCell>
        <mxCell id="475ydAV7qHKK5AaW2Ggx-6" value="&lt;div&gt;+ &lt;span class=&quot;hljs-built_in&quot;&gt;LivroDidatico&lt;/span&gt;(titulo: &lt;span class=&quot;hljs-type&quot;&gt;String&lt;/span&gt;, autor: &lt;span class=&quot;hljs-type&quot;&gt;String&lt;/span&gt;, ISBN: &lt;span class=&quot;hljs-type&quot;&gt;String&lt;/span&gt;, genero: &lt;span class=&quot;hljs-type&quot;&gt;String&lt;/span&gt;, disciplina: &lt;span class=&quot;hljs-type&quot;&gt;String&lt;/span&gt;)&amp;nbsp;&lt;br&gt;+ &lt;span class=&quot;hljs-built_in&quot;&gt;setDisciplina&lt;/span&gt;(disciplina: &lt;span class=&quot;hljs-type&quot;&gt;String&lt;/span&gt;): &lt;span class=&quot;hljs-type&quot;&gt;void&lt;/span&gt;&amp;nbsp;&lt;br&gt;+ &lt;span class=&quot;hljs-built_in&quot;&gt;getDisciplina&lt;/span&gt;(): &lt;span class=&quot;hljs-type&quot;&gt;String&lt;/span&gt;&lt;br&gt;&lt;/div&gt;" style="text;strokeColor=none;fillColor=none;align=left;verticalAlign=middle;spacingLeft=4;spacingRight=4;overflow=hidden;points=[[0,0.5],[1,0.5]];portConstraint=eastwest;rotatable=0;whiteSpace=wrap;html=1;" vertex="1" parent="475ydAV7qHKK5AaW2Ggx-4">
          <mxGeometry y="60" width="460" height="80" as="geometry" />
        </mxCell>
      </root>
    </mxGraphModel>
  </diagram>
</mxfile>
